Mais de 7 mil fãs da lendária Legião Urbana lotaram o Espaço das Américas, na Barra Funda, Zona Oeste de São Paulo, na noite desta terça-feira, em um tributo à banda promovido pela MTV. Com Wagner Moura assumindo os vocais originais de Renato Russo, Marcelo Bonfá e Dado Villa-Lobos desfilaram os maiores sucessos do grupo em um show inesquecível que marcou os 30 anos da banda brasiliense considerada uma das maiores bandas de rock nacional de todos os tempos.

Format                           : MPEG-4
Format profile                   : Base Media
Codec ID                         : isom
File size                        : 577 MiB
Duration                         : 2h 15mn
Overall bit rate                 : 596 Kbps
Writing application              : Lavf53.13.0

Video
ID                               : 1
Format                           : AVC
Format/Info                      : Advanced Video Codec
Format profile                   : High@L4.1
Format settings, CABAC           : Yes
Format settings, ReFrames        : 4 frames
Codec ID                         : avc1
Codec ID/Info                    : Advanced Video Coding
Duration                         : 2h 15mn
Bit rate mode                    : Variable
Bit rate                         : 424 Kbps
Width                            : 640 pixels
Height                           : 360 pixels
Display aspect ratio             : 16:9
Frame rate mode                  : Constant
Frame rate                       : 29.970 fps
Color space                      : YUV
Chroma subsampling               : 4:2:0
Bit depth                        : 8 bits
Scan type                        : Progressive
Bits/(Pixel*Frame)               : 0.061
Stream size                      : 411 MiB (71%)


Audio
ID                               : 2
Format                           : AAC
Format/Info                      : Advanced Audio Codec
Format profile                   : LC
Codec ID                         : 40
Duration                         : 2h 15mn
Bit rate mode                    : Variable
Bit rate                         : 165 Kbps
Maximum bit rate                 : 228 Kbps
Channel(s)                       : 2 channels
Channel positions                : Front: L R
Sampling rate                    : 48.0 KHz
Compression mode                 : Lossy
Stream size                      : 160 MiB (28%)

